<svg width="60" height="60" viewBox="0 0 60 60" fill="none" xmlns="http://www.w3.org/2000/svg">
<path d="M30 20.625C30 18.6359 30.7902 16.7282 32.1967 15.3217C33.6032 13.9152 35.5109 13.125 37.5 13.125H52.5C52.9973 13.125 53.4742 13.3225 53.8258 13.6742C54.1775 14.0258 54.375 14.5027 54.375 15V45C54.375 45.4973 54.1775 45.9742 53.8258 46.3258C53.4742 46.6775 52.9973 46.875 52.5 46.875H37.5C35.5109 46.875 33.6032 47.6652 32.1967 49.0717C30.7902 50.4782 30 52.3859 30 54.375" stroke="white" stroke-width="2" stroke-linecap="round" stroke-linejoin="round"/>
<path d="M5.625 45C5.625 45.4973 5.82254 45.9742 6.17417 46.3258C6.52581 46.6775 7.00272 46.875 7.5 46.875H22.5C24.4891 46.875 26.3968 47.6652 27.8033 49.0717C29.2098 50.4782 30 52.3859 30 54.375V20.625C30 18.6359 29.2098 16.7282 27.8033 15.3217C26.3968 13.9152 24.4891 13.125 22.5 13.125H7.5C7.00272 13.125 6.52581 13.3225 6.17417 13.6742C5.82254 14.0258 5.625 14.5027 5.625 15V45Z" stroke="white" stroke-width="2" stroke-linecap="round" stroke-linejoin="round"/>
<circle cx="46" cy="38" r="4" stroke="white" stroke-width="2"/>
</svg>
