<svg width="60" height="60" viewBox="0 0 60 60" fill="none" xmlns="http://www.w3.org/2000/svg">
<path d="M50.625 50.625V27.0703C50.6208 26.8108 50.5647 26.5548 50.4601 26.3173C50.3554 26.0798 50.2043 25.8656 50.0156 25.6875L31.2656 8.64839C30.92 8.33217 30.4685 8.1568 30 8.1568C29.5315 8.1568 29.08 8.33217 28.7344 8.64839L9.98437 25.6875C9.7957 25.8656 9.64458 26.0798 9.53993 26.3173C9.43528 26.5548 9.3792 26.8108 9.375 27.0703V50.625" stroke="white" stroke-width="2" stroke-linecap="round" stroke-linejoin="round"/>
<path d="M3.75 50.625H56.25" stroke="white" stroke-width="2" stroke-linecap="round" stroke-linejoin="round"/>
<path d="M35.625 50.625V37.5C35.625 37.0027 35.4275 36.5258 35.0758 36.1742C34.7242 35.8225 34.2473 35.625 33.75 35.625H26.25C25.7527 35.625 25.2758 35.8225 24.9242 36.1742C24.5725 36.5258 24.375 37.0027 24.375 37.5V50.625" stroke="white" stroke-width="2" stroke-linecap="round" stroke-linejoin="round"/>
</svg>
