<svg width="40" height="41" viewBox="0 0 40 41" fill="none" xmlns="http://www.w3.org/2000/svg">
<path d="M38.4212 38.4668L1.5791 38.4668" stroke="#47D47E" stroke-width="1.7" stroke-linecap="round"/>
<path d="M1.5791 18.2036L16.5479 6.22857C18.5662 4.61392 21.4341 4.61392 23.4524 6.22857L38.4212 18.2036" stroke="#47D47E" stroke-width="1.7" stroke-linecap="round"/>
<path d="M26.4473 8.07206V4.38785C26.4473 3.87917 26.8596 3.4668 27.3683 3.4668H31.9736C32.4823 3.4668 32.8946 3.87917 32.8946 4.38785V13.5984" stroke="#47D47E" stroke-width="1.7" stroke-linecap="round"/>
<path d="M5.26367 38.4667V15.4404" stroke="#47D47E" stroke-width="1.7" stroke-linecap="round"/>
<path d="M34.7373 38.4667V15.4404" stroke="#47D47E" stroke-width="1.7" stroke-linecap="round"/>
<path d="M25.5263 38.4668V29.2563C25.5263 26.6512 25.5263 25.3486 24.717 24.5393C23.9076 23.73 22.6051 23.73 19.9999 23.73C17.3948 23.73 16.0923 23.73 15.2829 24.5393C14.4736 25.3486 14.4736 26.6512 14.4736 29.2563V38.4668" stroke="#47D47E" stroke-width="1.7"/>
<path d="M23.6848 15.4406C23.6848 17.4753 22.0354 19.1248 20.0006 19.1248C17.9659 19.1248 16.3164 17.4753 16.3164 15.4406C16.3164 13.4058 17.9659 11.7563 20.0006 11.7563C22.0354 11.7563 23.6848 13.4058 23.6848 15.4406Z" stroke="#47D47E" stroke-width="1.7"/>
</svg>
