<svg width="40" height="41" viewBox="0 0 40 41" fill="none" xmlns="http://www.w3.org/2000/svg">
<path d="M17.0688 10.2191L15.0587 8.21121C13.0359 6.19071 13.7559 2.80029 16.6164 2.80029C20.4685 2.80029 23.9558 4.3599 26.4802 6.88144C29.0046 9.40299 30.5659 12.8865 30.5659 16.7342C30.5659 17.4416 30.5131 18.1366 30.4113 18.8156C30.1614 20.4822 30.5071 22.2505 31.715 23.4269L36.0379 27.637C37.7503 29.3048 37.7677 32.049 36.0765 33.7384L33.6009 36.2112C31.9247 37.8855 29.2071 37.8855 27.5309 36.2112L23.1125 31.7978C21.9481 30.6346 20.2256 30.2977 18.5953 30.529C17.9489 30.6207 17.2882 30.6681 16.6164 30.6681C12.7644 30.6681 9.27705 29.1085 6.75269 26.587C4.22834 24.0654 2.66699 20.582 2.66699 16.7342C2.66699 13.8768 6.06119 13.1577 8.08394 15.1782L10.0941 17.1861C11.7703 18.8604 14.4879 18.8604 16.1641 17.1861L17.0688 16.2824C18.745 14.608 18.745 11.8934 17.0688 10.2191Z" stroke="#47D47E" stroke-width="1.7" stroke-linecap="round"/>
</svg>
