<svg width="46" height="46" viewBox="0 0 46 46" fill="none" xmlns="http://www.w3.org/2000/svg">
<g opacity="0.3">
<path d="M12.452 7.1875H33.5474C33.8286 7.18741 34.1039 7.26882 34.3399 7.42189C34.5759 7.57496 34.7625 7.79312 34.877 8.05L42.2622 25.3C42.3575 25.5183 42.397 25.7569 42.3773 25.9943C42.3575 26.2316 42.2791 26.4604 42.149 26.6599C42.0189 26.8595 41.8413 27.0236 41.6321 27.1375C41.4229 27.2514 41.1887 27.3115 40.9505 27.3125H5.04892C4.81072 27.3115 4.5765 27.2514 4.36729 27.1375C4.15809 27.0236 3.98048 26.8595 3.85041 26.6599C3.72034 26.4604 3.6419 26.2316 3.62214 25.9943C3.60238 25.7569 3.64192 25.5183 3.7372 25.3L11.1224 8.05C11.237 7.79312 11.4235 7.57496 11.6595 7.42189C11.8955 7.26882 12.1708 7.18741 12.452 7.1875Z" stroke="black" stroke-width="2" stroke-linecap="round" stroke-linejoin="round"/>
<path d="M23 27.3125V38.8125" stroke="black" stroke-width="2" stroke-linecap="round" stroke-linejoin="round"/>
<path d="M17.25 38.8125H28.75" stroke="black" stroke-width="2" stroke-linecap="round" stroke-linejoin="round"/>
<path d="M35.9375 27.3125V34.5" stroke="black" stroke-width="2" stroke-linecap="round" stroke-linejoin="round"/>
</g>
</svg>
