<svg width="46" height="46" viewBox="0 0 46 46" fill="none" xmlns="http://www.w3.org/2000/svg">
<g opacity="0.3">
<path d="M23 41.6875V15.8125" stroke="black" stroke-width="2" stroke-linecap="round" stroke-linejoin="round"/>
<path d="M23 27.3125L14.375 23" stroke="black" stroke-width="2" stroke-linecap="round" stroke-linejoin="round"/>
<path d="M23 23L31.625 18.6875" stroke="black" stroke-width="2" stroke-linecap="round" stroke-linejoin="round"/>
<path d="M23.8087 32.5593C25.1276 33.4576 26.6189 34.0716 28.188 34.3622C29.757 34.6528 31.3693 34.6137 32.9224 34.2474C34.4755 33.8811 35.9354 33.1956 37.2091 32.2345C38.4829 31.2733 39.5428 30.0576 40.3212 28.6647C41.0996 27.2717 41.5797 25.732 41.7308 24.1435C41.8819 22.555 41.7007 20.9524 41.1989 19.4376C40.697 17.9229 39.8854 16.5292 38.8156 15.3451C37.7459 14.1611 36.4415 13.2126 34.9853 12.5601C34.6655 12.3993 34.4115 12.1326 34.2665 11.8054C33.335 9.5862 31.7688 7.69153 29.7644 6.35912C27.7601 5.02671 25.4069 4.31592 23.0001 4.31592C20.5933 4.31592 18.2401 5.02671 16.2358 6.35912C14.2315 7.69153 12.6653 9.5862 11.7337 11.8054C11.5887 12.1326 11.3347 12.3993 11.015 12.5601C9.55878 13.2126 8.25434 14.1611 7.1846 15.3451C6.11486 16.5292 5.30325 17.9229 4.80137 19.4376C4.2995 20.9524 4.11835 22.555 4.26945 24.1435C4.42055 25.732 4.90059 27.2717 5.67904 28.6647C6.45749 30.0576 7.51731 31.2733 8.79109 32.2345C10.0649 33.1956 11.5247 33.8811 13.0778 34.2474C14.6309 34.6137 16.2433 34.6528 17.8123 34.3622C19.3813 34.0716 20.8727 33.4576 22.1915 32.5593C22.4317 32.4016 22.7128 32.3176 23.0001 32.3176C23.2875 32.3176 23.5685 32.4016 23.8087 32.5593Z" stroke="black" stroke-width="2" stroke-linecap="round" stroke-linejoin="round"/>
</g>
</svg>
