<svg width="46" height="46" viewBox="0 0 46 46" fill="none" xmlns="http://www.w3.org/2000/svg">
<g opacity="0.3">
<path d="M38.8125 38.8126V20.754C38.8093 20.555 38.7663 20.3588 38.6861 20.1767C38.6058 19.9946 38.49 19.8304 38.3453 19.6938L23.9703 6.63055C23.7053 6.38811 23.3592 6.25366 23 6.25366C22.6408 6.25366 22.2947 6.38811 22.0297 6.63055L7.65469 19.6938C7.51003 19.8304 7.39418 19.9946 7.31395 20.1767C7.23371 20.3588 7.19072 20.555 7.1875 20.754V38.8126" stroke="black" stroke-width="2" stroke-linecap="round" stroke-linejoin="round"/>
<path d="M2.875 38.8125H43.125" stroke="black" stroke-width="2" stroke-linecap="round" stroke-linejoin="round"/>
<path d="M27.3125 38.8125V28.75C27.3125 28.3688 27.1611 28.0031 26.8915 27.7335C26.6219 27.4639 26.2562 27.3125 25.875 27.3125H20.125C19.7438 27.3125 19.3781 27.4639 19.1085 27.7335C18.839 28.0031 18.6875 28.3688 18.6875 28.75V38.8125" stroke="black" stroke-width="2" stroke-linecap="round" stroke-linejoin="round"/>
</g>
</svg>
