<svg width="22" height="22" viewBox="0 0 22 22" fill="none" xmlns="http://www.w3.org/2000/svg">
<path d="M10.5445 2.2257L3.6093 3.6093L2.2257 10.5445C2.20402 10.6552 2.20993 10.7695 2.2429 10.8775C2.27587 10.9854 2.3349 11.0835 2.41476 11.1632L11.3866 20.1351C11.4499 20.1998 11.5254 20.2512 11.6088 20.2863C11.6922 20.3214 11.7817 20.3395 11.8722 20.3395C11.9627 20.3395 12.0522 20.3214 12.1356 20.2863C12.219 20.2512 12.2945 20.1998 12.3577 20.1351L20.1351 12.3577C20.1998 12.2945 20.2512 12.219 20.2863 12.1356C20.3214 12.0522 20.3395 11.9627 20.3395 11.8722C20.3395 11.7817 20.3214 11.6922 20.2863 11.6088C20.2512 11.5254 20.1998 11.4499 20.1351 11.3866L11.1632 2.41476C11.0835 2.3349 10.9854 2.27587 10.8775 2.2429C10.7695 2.20993 10.6552 2.20402 10.5445 2.2257Z" stroke="#40C574" stroke-width="1.8" stroke-linecap="round" stroke-linejoin="round"/>
<path d="M7.21875 8.25C7.78829 8.25 8.25 7.78829 8.25 7.21875C8.25 6.64921 7.78829 6.1875 7.21875 6.1875C6.64921 6.1875 6.1875 6.64921 6.1875 7.21875C6.1875 7.78829 6.64921 8.25 7.21875 8.25Z" fill="#40C574"/>
</svg>
