<svg width="46" height="46" viewBox="0 0 46 46" fill="none" xmlns="http://www.w3.org/2000/svg">
<g opacity="0.3">
<path d="M25.875 7.1875H20.125" stroke="black" stroke-width="2" stroke-linecap="round" stroke-linejoin="round"/>
<path d="M20.125 38.8125H25.875" stroke="black" stroke-width="2" stroke-linecap="round" stroke-linejoin="round"/>
<path d="M33.0625 7.1875H37.375C37.7562 7.1875 38.1219 7.33895 38.3915 7.60853C38.6611 7.87812 38.8125 8.24375 38.8125 8.625V12.9375" stroke="black" stroke-width="2" stroke-linecap="round" stroke-linejoin="round"/>
<path d="M38.8125 25.875V20.125" stroke="black" stroke-width="2" stroke-linecap="round" stroke-linejoin="round"/>
<path d="M33.0625 38.8125H37.375C37.7562 38.8125 38.1219 38.6611 38.3915 38.3915C38.6611 38.1219 38.8125 37.7562 38.8125 37.375V33.0625" stroke="black" stroke-width="2" stroke-linecap="round" stroke-linejoin="round"/>
<path d="M7.1875 20.125V25.875" stroke="black" stroke-width="2" stroke-linecap="round" stroke-linejoin="round"/>
<path d="M12.9375 38.8125H8.625C8.24375 38.8125 7.87812 38.6611 7.60853 38.3915C7.33895 38.1219 7.1875 37.7562 7.1875 37.375V33.0625" stroke="black" stroke-width="2" stroke-linecap="round" stroke-linejoin="round"/>
<path d="M12.9375 7.1875H8.625C8.24375 7.1875 7.87812 7.33895 7.60853 7.60853C7.33895 7.87812 7.1875 8.24375 7.1875 8.625V12.9375" stroke="black" stroke-width="2" stroke-linecap="round" stroke-linejoin="round"/>
<path d="M31.625 14.375H14.375V31.625H31.625V14.375Z" stroke="black" stroke-width="2" stroke-linecap="round" stroke-linejoin="round"/>
</g>
</svg>
