<svg width="41" height="172" viewBox="0 0 41 172" fill="none" xmlns="http://www.w3.org/2000/svg">
<path d="M39.8424 82.8036L40.8424 82.803L39.8424 82.8036ZM1.26394 168.961C1.1867 169.508 1.56739 170.014 2.11425 170.091L11.0258 171.35C11.5726 171.427 12.0786 171.047 12.1558 170.5C12.2331 169.953 11.8524 169.447 11.3055 169.37L3.38415 168.251L4.50304 160.329C4.58028 159.783 4.19959 159.277 3.65273 159.199C3.10587 159.122 2.59994 159.503 2.5227 160.05L1.26394 168.961ZM0.920989 1.12762C0.400838 1.98169 0.400532 1.98151 0.400374 1.98141C0.40052 1.9815 0.400509 1.98149 0.400796 1.98167C0.401371 1.98202 0.402536 1.98273 0.404281 1.9838C0.407773 1.98595 0.413596 1.98954 0.421712 1.99458C0.437952 2.00466 0.463366 2.02054 0.497662 2.04225C0.566261 2.08568 0.670383 2.15245 0.807667 2.24288C1.08224 2.42374 1.4894 2.69922 2.01025 3.07188C3.05201 3.81725 4.54804 4.95103 6.34722 6.4937C9.94608 9.57946 14.7542 14.2981 19.5658 20.8132C29.1825 33.8347 38.8272 54.0496 38.8424 82.8041L40.8424 82.803C40.8269 53.5669 31.0109 32.9438 21.1746 19.625C16.2596 12.9699 11.3432 8.14284 7.64906 4.9754C5.80175 3.39147 4.25922 2.22179 3.17402 1.44534C2.63139 1.05709 2.20298 0.767071 1.90785 0.572667C1.76028 0.475462 1.64602 0.402152 1.56745 0.35241C1.52816 0.327538 1.49779 0.308558 1.47664 0.295427C1.46607 0.288862 1.45779 0.283759 1.45187 0.280113C1.4489 0.27829 1.44652 0.276832 1.44473 0.275737C1.44384 0.275189 1.44294 0.27464 1.44249 0.274367C1.44174 0.273909 1.44114 0.273542 0.920989 1.12762ZM38.8424 82.8041C38.8576 111.571 29.5374 132.958 20.2237 147.15C15.5654 154.249 10.9082 159.548 7.42115 163.068C5.67784 164.828 4.22775 166.143 3.21731 167.014C2.71212 167.45 2.31693 167.775 2.05005 167.99C1.91661 168.097 1.81527 168.177 1.7483 168.229C1.71482 168.255 1.68993 168.274 1.67393 168.286C1.66593 168.292 1.66015 168.297 1.65662 168.299C1.65486 168.301 1.65366 168.301 1.65303 168.302C1.65272 168.302 1.65267 168.302 1.65251 168.302C1.65261 168.302 1.65285 168.302 2.25411 169.101C2.85537 169.9 2.8559 169.9 2.85657 169.899C2.85699 169.899 2.8578 169.898 2.85863 169.898C2.86029 169.896 2.86252 169.895 2.86531 169.893C2.8709 169.888 2.87875 169.882 2.88883 169.875C2.90898 169.859 2.93806 169.837 2.97575 169.808C3.05114 169.749 3.16103 169.663 3.30312 169.548C3.58728 169.32 4.00028 168.98 4.52367 168.529C5.5704 167.626 7.05905 166.276 8.84205 164.476C12.4076 160.876 17.1532 155.474 21.8958 148.247C31.384 133.789 40.8579 112.027 40.8424 82.803L38.8424 82.8041Z" fill="#40C574"/>
</svg>
