<svg width="41" height="235" viewBox="0 0 41 235" fill="none" xmlns="http://www.w3.org/2000/svg">
<path d="M39.9942 114.122L40.9942 114.119L39.9942 114.122ZM1.66579 233.156C1.67611 233.708 2.1321 234.148 2.68429 234.137L11.6827 233.969C12.2349 233.959 12.6742 233.503 12.6639 232.951C12.6536 232.399 12.1976 231.959 11.6454 231.97L3.64678 232.119L3.49745 224.12C3.48714 223.568 3.03115 223.129 2.47896 223.139C1.92677 223.15 1.48749 223.606 1.4978 224.158L1.66579 233.156ZM0.825286 1.25542C0.181121 2.02031 0.180821 2.02006 0.180668 2.01993C0.180817 2.02005 0.180814 2.02005 0.181106 2.0203C0.181693 2.0208 0.182868 2.02179 0.184627 2.02329C0.188149 2.02628 0.194007 2.03128 0.202169 2.03828C0.218489 2.05229 0.244017 2.07434 0.27846 2.10449C0.347342 2.16477 0.451864 2.25743 0.58967 2.3829C0.865276 2.63385 1.27398 3.01601 1.79686 3.53291C2.84263 4.56671 4.345 6.13932 6.15264 8.27878C9.76787 12.5576 14.6041 19.1036 19.4513 28.1415C29.1429 46.2119 38.8918 74.2677 38.9942 114.125L40.9942 114.119C40.8909 73.9235 31.0553 45.546 21.2138 27.1962C16.2946 18.0241 11.3771 11.3634 7.68035 6.988C5.83198 4.80035 4.28874 3.18398 3.20291 2.11058C2.65999 1.57387 2.23139 1.17288 1.93615 0.90406C1.78853 0.76965 1.67424 0.668281 1.59567 0.59951C1.55638 0.565124 1.52602 0.538887 1.50489 0.520744C1.49432 0.511672 1.48606 0.504624 1.48014 0.499592C1.47718 0.497076 1.47481 0.495064 1.47302 0.493556C1.47213 0.492802 1.47124 0.492047 1.47079 0.49167C1.47005 0.491041 1.46945 0.490539 0.825286 1.25542ZM38.9942 114.125C39.0967 153.989 29.8035 183.596 20.5034 203.221C15.8526 213.036 11.1988 220.356 7.71445 225.216C5.97231 227.646 4.52268 229.461 3.51222 230.664C3.007 231.266 2.61159 231.714 2.34433 232.011C2.21071 232.159 2.10912 232.269 2.04188 232.341C2.00825 232.377 1.98321 232.404 1.96705 232.421C1.95896 232.43 1.95309 232.436 1.94948 232.44C1.94767 232.441 1.94643 232.443 1.94576 232.443C1.94542 232.444 1.94534 232.444 1.94517 232.444C1.94523 232.444 1.94544 232.444 2.66562 233.138C3.3858 233.831 3.38629 233.831 3.38693 233.83C3.38733 233.83 3.38811 233.829 3.38891 233.828C3.39052 233.826 3.3927 233.824 3.39544 233.821C3.40091 233.816 3.40865 233.807 3.4186 233.797C3.43851 233.776 3.46731 233.745 3.5047 233.705C3.57947 233.625 3.68863 233.507 3.82986 233.35C4.11233 233.037 4.52313 232.57 5.04383 231.95C6.08523 230.71 7.56637 228.855 9.33986 226.382C12.8868 221.434 17.6037 214.011 22.3108 204.078C31.7265 184.209 41.0976 154.308 40.9942 114.119L38.9942 114.125Z" fill="#40C574"/>
</svg>
