<svg width="104" height="104" viewBox="0 0 104 104" fill="none" xmlns="http://www.w3.org/2000/svg">
<circle cx="52" cy="52" r="51.25" stroke="black" stroke-opacity="0.1" stroke-width="1.5"/>
<path d="M80.2945 52.4984L74.3125 55.4773L66.5625 40.6555L72.6172 37.6281C73.0671 37.3988 73.5895 37.3566 74.0705 37.5109C74.5514 37.6651 74.9518 38.0033 75.1844 38.4516L81.1422 49.8586C81.263 50.0869 81.3369 50.3371 81.3596 50.5945C81.3823 50.8518 81.3533 51.1111 81.2744 51.357C81.1954 51.603 81.068 51.8307 80.8997 52.0267C80.7315 52.2227 80.5257 52.3831 80.2945 52.4984Z" stroke="#40C574" stroke-width="3" stroke-linecap="round" stroke-linejoin="round"/>
<path d="M31.6881 55.2351L25.706 52.232C25.4757 52.1191 25.2704 51.961 25.1024 51.7672C24.9344 51.5734 24.807 51.3478 24.728 51.1038C24.6489 50.8597 24.6197 50.6023 24.6421 50.3468C24.6645 50.0913 24.738 49.8429 24.8584 49.6163L30.8162 38.2093C31.0493 37.7613 31.448 37.422 31.9275 37.2637C32.407 37.1054 32.9294 37.1405 33.3834 37.3616L39.4381 40.389L31.6881 55.2351Z" stroke="#40C574" stroke-width="3" stroke-linecap="round" stroke-linejoin="round"/>
<path d="M74.3125 55.4773L70.4375 60.0304L61.525 68.9429C61.2821 69.1701 60.9878 69.335 60.6672 69.4235C60.3467 69.5121 60.0094 69.5217 59.6844 69.4515L45.6375 65.9398C45.3809 65.8683 45.1418 65.7446 44.9352 65.5765L31.6875 55.2351" stroke="#40C574" stroke-width="3" stroke-linecap="round" stroke-linejoin="round"/>
<path d="M70.4373 60.0305L59.7811 52.2805L56.6811 54.6055C55.338 55.6079 53.707 56.1495 52.0311 56.1495C50.3552 56.1495 48.7242 55.6079 47.3811 54.6055L46.0733 53.6126C45.8521 53.4444 45.6692 53.2312 45.5366 52.9871C45.4041 52.743 45.3248 52.4735 45.3042 52.1964C45.2836 51.9194 45.3221 51.6411 45.4171 51.3801C45.5121 51.119 45.6615 50.8811 45.8553 50.6821L55.3491 41.2126C55.5274 41.0351 55.739 40.8946 55.9717 40.799C56.2044 40.7034 56.4537 40.6546 56.7053 40.6555H66.5623" stroke="#40C574" stroke-width="3" stroke-linecap="round" stroke-linejoin="round"/>
<path d="M39.582 40.389L52.0063 36.7562C52.4477 36.6296 52.9198 36.664 53.3383 36.8531L61.718 40.6554" stroke="#40C574" stroke-width="3" stroke-linecap="round" stroke-linejoin="round"/>
<path d="M49.125 74.5617L41.8352 72.7211C41.5381 72.654 41.263 72.5123 41.0359 72.3094L35.5625 67.5625" stroke="#40C574" stroke-width="3" stroke-linecap="round" stroke-linejoin="round"/>
</svg>
