<svg width="104" height="104" viewBox="0 0 104 104" fill="none" xmlns="http://www.w3.org/2000/svg">
<circle cx="52" cy="52" r="51.25" stroke="black" stroke-opacity="0.1" stroke-width="1.5"/>
<path d="M44.25 73.3125H32.625C32.1111 73.3125 31.6183 73.1084 31.255 72.745C30.8916 72.3817 30.6875 71.8889 30.6875 71.375V60.5492C30.6866 60.2976 30.7353 60.0483 30.8309 59.8156C30.9265 59.5829 31.0671 59.3713 31.2445 59.193L60.307 30.1305C60.4873 29.9474 60.7022 29.802 60.9392 29.7028C61.1762 29.6036 61.4305 29.5525 61.6875 29.5525C61.9444 29.5525 62.1988 29.6036 62.4358 29.7028C62.6728 29.802 62.8877 29.9474 63.0679 30.1305L73.8695 40.932C74.0526 41.1123 74.198 41.3272 74.2972 41.5642C74.3964 41.8012 74.4475 42.0556 74.4475 42.3125C74.4475 42.5694 74.3964 42.8238 74.2972 43.0608C74.198 43.2978 74.0526 43.5127 73.8695 43.693L44.25 73.3125Z" stroke="#ADADAD" stroke-width="3" stroke-linecap="round" stroke-linejoin="round"/>
<path d="M53.9375 36.5L67.5 50.0625" stroke="#ADADAD" stroke-width="3" stroke-linecap="round" stroke-linejoin="round"/>
<path d="M73.3125 73.3125H44.25L30.8086 59.8711" stroke="#ADADAD" stroke-width="3" stroke-linecap="round" stroke-linejoin="round"/>
<path d="M60.7188 43.2812L37.4688 66.5312" stroke="#ADADAD" stroke-width="3" stroke-linecap="round" stroke-linejoin="round"/>
</svg>
