<svg width="104" height="104" viewBox="0 0 104 104" fill="none" xmlns="http://www.w3.org/2000/svg">
<circle cx="52" cy="52" r="51.25" stroke="black" stroke-opacity="0.1" stroke-width="1.5"/>
<g opacity="0.3">
<path d="M52 77.1875V42.3125" stroke="black" stroke-width="3" stroke-linecap="round" stroke-linejoin="round"/>
<path d="M52 57.8125L40.375 52" stroke="black" stroke-width="3" stroke-linecap="round" stroke-linejoin="round"/>
<path d="M52 52L63.625 46.1875" stroke="black" stroke-width="3" stroke-linecap="round" stroke-linejoin="round"/>
<path d="M53.0898 64.8844C54.8674 66.0951 56.8775 66.9226 58.9923 67.3143C61.1071 67.7061 63.2802 67.6534 65.3735 67.1596C67.4668 66.6659 69.4345 65.742 71.1513 64.4465C72.8681 63.1511 74.2966 61.5125 75.3458 59.6351C76.395 57.7576 77.042 55.6824 77.2457 53.5413C77.4493 51.4002 77.2052 49.2402 76.5287 47.1986C75.8523 45.157 74.7584 43.2785 73.3166 41.6826C71.8747 40.0868 70.1166 38.8084 68.1539 37.9289C67.7229 37.7122 67.3805 37.3527 67.1852 36.9117C65.9296 33.9206 63.8186 31.3669 61.1171 29.5711C58.4156 27.7752 55.2439 26.8172 52 26.8172C48.7561 26.8172 45.5844 27.7752 42.8829 29.5711C40.1814 31.3669 38.0704 33.9206 36.8148 36.9117C36.6195 37.3527 36.277 37.7122 35.8461 37.9289C33.8834 38.8084 32.1252 40.0868 30.6834 41.6826C29.2416 43.2785 28.1477 45.157 27.4712 47.1986C26.7948 49.2402 26.5507 51.4002 26.7543 53.5413C26.958 55.6824 27.605 57.7576 28.6542 59.6351C29.7034 61.5125 31.1319 63.1511 32.8487 64.4465C34.5655 65.742 36.5332 66.6659 38.6265 67.1596C40.7198 67.6534 42.8929 67.7061 45.0077 67.3143C47.1225 66.9226 49.1326 66.0951 50.9102 64.8844C51.2339 64.6718 51.6127 64.5586 52 64.5586C52.3873 64.5586 52.7661 64.6718 53.0898 64.8844Z" stroke="black" stroke-width="3" stroke-linecap="round" stroke-linejoin="round"/>
</g>
</svg>
