<svg width="158" height="291" viewBox="0 0 158 291" fill="none" xmlns="http://www.w3.org/2000/svg">
<path d="M153 13H0V246L153 146.696V13Z" fill="#40C574"/>
<path d="M0 0H158V291L0 197V0Z" fill="#FF9D00"/>
<mask id="mask0_56_5564" style="mask-type:alpha" maskUnits="userSpaceOnUse" x="0" y="0" width="158" height="291">
<path d="M0 0H158V291L0 197V0Z" fill="#078E00"/>
</mask>
<g mask="url(#mask0_56_5564)">
<g opacity="0.4">
<path d="M116.399 210.078L116.4 210.079C118.344 211.27 119.647 213.262 120.323 215.616L120.323 215.617C120.892 217.603 120.637 220.141 120.089 222.67C119.524 225.277 118.572 228.196 117.461 231.108C115.238 236.939 112.303 242.942 110.29 246.736L109.318 248.567L107.523 247.531C103.801 245.383 98.1272 241.851 93.1485 238.088C90.6615 236.209 88.3051 234.24 86.4435 232.33C84.6385 230.478 83.0758 228.462 82.5065 226.477L116.399 210.078ZM116.399 210.078C114.249 208.761 111.717 208.652 109.103 209.403C107.217 209.944 105.301 211.437 103.823 212.885C102.389 214.289 101.077 215.94 100.345 217.321M116.399 210.078L100.345 217.321M100.345 217.321C98.991 216.539 97.0024 215.836 95.0428 215.406C93.0213 214.963 90.6051 214.715 88.7198 215.257C85.0669 216.306 83.1503 218.444 82.4171 220.867C81.7358 223.119 82.171 225.308 82.5062 226.476L100.345 217.321Z" stroke="white" stroke-width="4"/>
<path d="M78.3175 257.099C77.5352 258.453 76.8318 260.441 76.4023 262.401C75.9593 264.422 75.7114 266.838 76.2529 268.724C77.302 272.377 79.4394 274.294 81.8629 275.027C84.1152 275.709 86.3051 275.272 87.4728 274.937C89.4579 274.367 91.4742 272.804 93.3264 270.998C95.2362 269.136 97.2053 266.78 99.0848 264.293C102.848 259.314 106.379 253.641 108.527 249.92L109.563 248.125L107.733 247.154C103.938 245.139 97.9338 242.205 92.1031 239.981C89.1905 238.871 86.2713 237.918 83.6648 237.353C81.1371 236.806 78.5988 236.55 76.614 237.12C75.4459 237.456 73.3582 238.249 71.8105 240.021C70.1452 241.929 69.35 244.688 70.3991 248.341C70.9405 250.226 72.4327 252.143 73.8809 253.621C75.2846 255.054 76.9361 256.366 78.3175 257.099Z" stroke="white" stroke-width="4"/>
<path d="M135.933 269.972C135.364 267.987 133.801 265.97 131.996 264.118C130.134 262.208 127.778 260.239 125.291 258.36C120.312 254.597 114.638 251.065 110.916 248.917L109.122 247.881L108.15 249.711C106.135 253.506 103.201 259.51 100.977 265.341C99.8669 268.254 98.9145 271.173 98.3497 273.78C97.802 276.308 97.5468 278.846 98.1169 280.832C98.4523 281.999 99.2445 284.087 101.017 285.634C102.925 287.3 105.684 288.094 109.337 287.045C111.222 286.503 113.139 285.011 114.617 283.563C116.05 282.159 117.362 280.508 118.095 279.126C119.449 279.909 121.437 280.612 123.397 281.042C125.418 281.485 127.834 281.733 129.72 281.191C133.373 280.142 135.289 278.004 136.023 275.581C136.704 273.329 136.269 271.14 135.933 269.972ZM135.933 269.972L134.011 270.523L135.933 269.971C135.933 269.971 135.933 269.972 135.933 269.972Z" stroke="white" stroke-width="4"/>
<path d="M141.825 259.327L141.825 259.327C142.994 258.992 145.081 258.199 146.629 256.426C148.294 254.519 149.089 251.76 148.04 248.107C147.499 246.222 146.007 244.305 144.559 242.827C143.155 241.394 141.503 240.081 140.122 239.349C140.904 237.995 141.608 236.007 142.037 234.047C142.48 232.025 142.728 229.609 142.187 227.724C141.436 225.109 140 223.021 137.743 221.898L137.742 221.898C135.701 220.882 133.323 220.834 130.972 221.509L130.967 221.511L130.966 221.511C128.98 222.082 126.963 223.645 125.11 225.451C123.2 227.313 121.231 229.67 119.352 232.156C115.589 237.135 112.059 242.807 109.912 246.528L108.877 248.322L110.707 249.294C114.502 251.308 120.506 254.243 126.336 256.466C129.249 257.576 132.168 258.529 134.774 259.094C137.302 259.641 139.84 259.897 141.825 259.327ZM138.291 238.516C138.028 238.939 137.958 239.453 138.095 239.931C138.233 240.409 138.564 240.807 139.012 241.027C141.318 242.167 145.318 245.874 146.118 248.659C147.879 254.79 143.317 256.818 141.273 257.405L138.291 238.516Z" stroke="white" stroke-width="4"/>
<path d="M110 247.5C115.833 233.333 131.6 204.7 148 203.5" stroke="white" stroke-width="4"/>
</g>
</g>
<path d="M44.32 154C44.0533 154 43.9467 153.84 44 153.52L49.2 128.16C49.2533 127.92 49.4 127.8 49.64 127.8H54.16C54.4 127.8 54.5467 127.92 54.6 128.16L59.8 153.52C59.8533 153.84 59.76 154 59.52 154H55.76C55.5467 154 55.4133 153.893 55.36 153.68L52.72 137.6C52.56 136.667 52.4133 135.733 52.28 134.8C52.1467 133.867 52.0267 132.947 51.92 132.04H51.84C51.7067 132.947 51.5733 133.867 51.44 134.8C51.3333 135.733 51.2133 136.667 51.08 137.6L48.4 153.68C48.3733 153.893 48.24 154 48 154H44.32ZM61.9013 154C61.6346 154 61.5013 153.853 61.5013 153.56V128.24C61.5013 127.947 61.6213 127.8 61.8613 127.8H72.5013C72.7413 127.8 72.8613 127.947 72.8613 128.24V131.16C72.8613 131.453 72.7413 131.6 72.5013 131.6H65.7013V138.88H71.9013C72.1413 138.88 72.2613 139.027 72.2613 139.32V142.08C72.2613 142.373 72.1413 142.52 71.9013 142.52H65.7013V150.2H72.5013C72.7413 150.2 72.8613 150.347 72.8613 150.64V153.56C72.8613 153.853 72.7413 154 72.5013 154H61.9013ZM79.7934 154C79.5534 154 79.4334 153.853 79.4334 153.56V131.6H75.2734C75.0068 131.6 74.8734 131.453 74.8734 131.16V128.24C74.8734 127.947 75.0068 127.8 75.2734 127.8H87.7934C88.0334 127.8 88.1534 127.947 88.1534 128.24V131.16C88.1534 131.453 88.0334 131.6 87.7934 131.6H83.6334V153.56C83.6334 153.853 83.5001 154 83.2334 154H79.7934ZM52.68 190.24C50.3067 190.24 48.4933 189.547 47.24 188.16C46.0133 186.773 45.4 184.707 45.4 181.96V171.88C45.4 169.107 46.0133 167.027 47.24 165.64C48.4933 164.253 50.3067 163.56 52.68 163.56C55.0267 163.56 56.8267 164.253 58.08 165.64C59.3333 167.027 59.96 169.107 59.96 171.88V181.96C59.96 184.707 59.3333 186.773 58.08 188.16C56.8267 189.547 55.0267 190.24 52.68 190.24ZM52.68 186.4C53.72 186.4 54.4933 186.04 55 185.32C55.5333 184.6 55.8 183.413 55.8 181.76V172.08C55.8 170.4 55.5333 169.2 55 168.48C54.4933 167.76 53.72 167.4 52.68 167.4C51.64 167.4 50.8533 167.76 50.32 168.48C49.8133 169.2 49.56 170.4 49.56 172.08V181.76C49.56 183.413 49.8133 184.6 50.32 185.32C50.8533 186.04 51.64 186.4 52.68 186.4ZM63.4238 190C63.1838 190 63.0638 189.853 63.0638 189.56V164.24C63.0638 163.947 63.1971 163.8 63.4638 163.8H76.9038C77.1704 163.8 77.3038 163.947 77.3038 164.24V189.56C77.3038 189.853 77.1704 190 76.9038 190H73.5038C73.2371 190 73.1037 189.853 73.1037 189.56V167.6H67.2638V189.52C67.2638 189.84 67.1438 190 66.9038 190H63.4238ZM81.1591 190C80.8924 190 80.7591 189.853 80.7591 189.56V164.24C80.7591 163.947 80.8924 163.8 81.1591 163.8H84.5591C84.8257 163.8 84.9591 163.947 84.9591 164.24V173.2H86.0791C88.6391 173.2 90.5457 173.893 91.7991 175.28C93.0524 176.64 93.6791 178.653 93.6791 181.32C93.6791 184.173 93.0791 186.333 91.8791 187.8C90.7057 189.267 88.7457 190 85.9991 190H81.1591ZM84.9591 186.2H85.9991C87.2791 186.2 88.1857 185.813 88.7191 185.04C89.2791 184.267 89.5591 183.027 89.5591 181.32C89.5324 179.747 89.2391 178.613 88.6791 177.92C88.1191 177.227 87.2124 176.88 85.9591 176.88H84.9591V186.2ZM96.6791 190C96.4391 190 96.3191 189.853 96.3191 189.56V164.24C96.3191 163.947 96.4391 163.8 96.6791 163.8H100.159C100.399 163.8 100.519 163.947 100.519 164.24V189.56C100.519 189.853 100.399 190 100.159 190H96.6791ZM107.723 190C107.483 190 107.363 189.853 107.363 189.56V167.6H103.203C102.936 167.6 102.803 167.453 102.803 167.16V164.24C102.803 163.947 102.936 163.8 103.203 163.8H115.723C115.963 163.8 116.083 163.947 116.083 164.24V167.16C116.083 167.453 115.963 167.6 115.723 167.6H111.563V189.56C111.563 189.853 111.43 190 111.163 190H107.723ZM115.531 190C115.264 190 115.158 189.84 115.211 189.52L120.531 164.16C120.584 163.92 120.731 163.8 120.971 163.8H125.491C125.731 163.8 125.878 163.92 125.931 164.16L131.251 189.52C131.304 189.84 131.211 190 130.971 190H127.171C126.958 190 126.824 189.893 126.771 189.68L124.091 173.56C123.931 172.627 123.771 171.707 123.611 170.8C123.478 169.867 123.358 168.947 123.251 168.04H123.171C123.038 168.947 122.904 169.867 122.771 170.8C122.664 171.707 122.531 172.627 122.371 173.56L119.611 189.68C119.584 189.893 119.464 190 119.251 190H115.531ZM119.891 184.24L120.531 180.68H125.811L126.491 184.24H119.891Z" fill="white"/>
<path d="M45.385 116C44.617 116 44.233 115.616 44.233 114.848V107.68C44.233 102.56 44.8303 98.1653 46.025 94.496C47.2197 90.8267 48.7557 87.6267 50.633 84.896C52.5103 82.08 54.5157 79.52 56.649 77.216C58.7823 74.912 60.7877 72.608 62.665 70.304C64.5423 67.9147 66.0783 65.3547 67.273 62.624C68.4677 59.808 69.065 56.5227 69.065 52.768V50.336C69.065 46.3253 68.425 43.5093 67.145 41.888C65.9503 40.2667 63.9023 39.456 61.001 39.456C57.929 39.456 55.7957 40.608 54.601 42.912C53.4063 45.216 52.8517 48.5013 52.937 52.768C52.937 53.536 52.553 53.92 51.785 53.92H46.025C45.257 53.92 44.873 53.536 44.873 52.768C44.7877 45.6853 46.0677 40.352 48.713 36.768C51.4437 33.184 55.5823 31.392 61.129 31.392C66.505 31.392 70.5583 32.9707 73.289 36.128C76.105 39.2853 77.513 44.2347 77.513 50.976C77.513 56.096 76.9157 60.4053 75.721 63.904C74.5263 67.4027 72.9903 70.432 71.113 72.992C69.321 75.4667 67.3583 77.8133 65.225 80.032C63.0917 82.2507 61.0863 84.5973 59.209 87.072C57.417 89.4613 55.9237 92.32 54.729 95.648C53.5343 98.976 52.937 103.029 52.937 107.808H76.233C76.9157 107.808 77.257 108.192 77.257 108.96V114.848C77.257 115.616 76.9157 116 76.233 116H45.385ZM101.584 116.768C97.8293 116.768 94.7147 115.957 92.24 114.336C89.7653 112.629 87.9733 110.197 86.864 107.04C85.7547 103.797 85.2427 99.872 85.328 95.264C85.328 94.8373 85.4133 94.5387 85.584 94.368C85.84 94.1973 86.1387 94.112 86.48 94.112H92.24C92.9227 94.112 93.264 94.496 93.264 95.264C93.1787 99.36 93.7333 102.645 94.928 105.12C96.1227 107.509 98.4267 108.704 101.84 108.704C105.168 108.704 107.6 107.381 109.136 104.736C110.672 102.005 111.44 97.9093 111.44 92.448V86.432C111.44 82.848 111.099 79.9467 110.416 77.728C109.819 75.424 108.795 73.7173 107.344 72.608C105.979 71.4987 104.144 70.944 101.84 70.944C99.792 70.944 97.616 71.3707 95.312 72.224C93.008 73.0773 90.7467 74.1867 88.528 75.552C88.1013 75.8933 87.7173 75.9787 87.376 75.808C87.0347 75.552 86.864 75.2107 86.864 74.784L89.552 33.312C89.552 32.544 89.936 32.16 90.704 32.16H115.536C116.304 32.16 116.688 32.544 116.688 33.312V39.2C116.688 39.968 116.304 40.352 115.536 40.352H96.976L95.312 65.312C97.0187 64.6293 98.5973 64.1173 100.048 63.776C101.499 63.4347 103.035 63.264 104.656 63.264C109.691 63.264 113.488 65.3973 116.048 69.664C118.608 73.8453 119.888 80.544 119.888 89.76C119.888 98.464 118.352 105.163 115.28 109.856C112.208 114.464 107.643 116.768 101.584 116.768Z" fill="white"/>
</svg>
